<svg xmlns="http://www.w3.org/2000/svg" width="702" height="752" viewBox="0 0 702 752" font-family="-apple-system, Helvetica, sans-serif"><rect width="702" height="752" fill="#0d1117"/><text x="20" y="36" fill="#e6edf3" font-size="17" font-weight="500" text-anchor="start">Usage Glance — 9 rotatable styles</text><text x="22" y="67" fill="#7d8590" font-size="11" font-weight="400" text-anchor="start">orig  ·  orig</text><g transform="translate(20,76)"><rect width="210" height="188" rx="12" fill="#161b22" stroke="rgba(255,255,255,0.08)"/><text x="14" y="22" fill="#9aa4ad" font-size="9.5" font-weight="500" text-anchor="start" font-family="-apple-system, Helvetica, sans-serif">USAGE GLANCE</text><text x="14" y="44" fill="#e6edf3" font-size="13" font-weight="500" text-anchor="start" font-family="-apple-system, Helvetica, sans-serif">Claude</text><g transform="translate(0,50)"><text x="14" y="9" fill="#9aa4ad" font-size="10" font-weight="400" text-anchor="start" font-family="-apple-system, Helvetica, sans-serif">5h</text><rect x="48" y="3" width="112" height="7" rx="3.5" fill="rgba(255,255,255,0.10)"/><rect x="48" y="3" width="38.1" height="7" rx="3.5" fill="#d29922"/><text x="196" y="9" fill="#d29922" font-size="11" font-weight="400" text-anchor="end" font-family="-apple-system, Helvetica, sans-serif">34%</text></g><g transform="translate(0,66)"><text x="14" y="9" fill="#9aa4ad" font-size="10" font-weight="400" text-anchor="start" font-family="-apple-system, Helvetica, sans-serif">weekly</text><rect x="48" y="3" width="112" height="7" rx="3.5" fill="rgba(255,255,255,0.10)"/><rect x="48" y="3" width="69.4" height="7" rx="3.5" fill="#3fb950"/><text x="196" y="9" fill="#3fb950" font-size="11" font-weight="400" text-anchor="end" font-family="-apple-system, Helvetica, sans-serif">62%</text></g><text x="14" y="102" fill="#e6edf3" font-size="13" font-weight="500" text-anchor="start" font-family="-apple-system, Helvetica, sans-serif">Codex</text><g transform="translate(0,108)"><text x="14" y="9" fill="#9aa4ad" font-size="10" font-weight="400" text-anchor="start" font-family="-apple-system, Helvetica, sans-serif">weekly</text><rect x="48" y="3" width="112" height="7" rx="3.5" fill="rgba(255,255,255,0.10)"/><rect x="48" y="3" width="94.1" height="7" rx="3.5" fill="#3fb950"/><text x="196" y="9" fill="#3fb950" font-size="11" font-weight="400" text-anchor="end" font-family="-apple-system, Helvetica, sans-serif">84%</text></g><text x="14" y="142" fill="#e6edf3" font-size="13" font-weight="500" text-anchor="start" font-family="-apple-system, Helvetica, sans-serif">fal.ai</text><text x="196" y="142" fill="#e6edf3" font-size="12" font-weight="400" text-anchor="end" font-family="-apple-system, Helvetica, sans-serif">$19.98 left</text><text x="14" y="164" fill="#e6edf3" font-size="13" font-weight="500" text-anchor="start" font-family="-apple-system, Helvetica, sans-serif">Manus</text><text x="196" y="164" fill="#e6edf3" font-size="12" font-weight="400" text-anchor="end" font-family="-apple-system, Helvetica, sans-serif">4,312 cr left</text></g><text x="248" y="67" fill="#7d8590" font-size="11" font-weight="400" text-anchor="start">bars  ·  bars</text><g transform="translate(246,76)"><rect width="210" height="188" rx="12" fill="#161b22" stroke="rgba(255,255,255,0.08)"/><text x="14" y="22" fill="#9aa4ad" font-size="9.5" font-weight="500" text-anchor="start" font-family="'Trebuchet MS', sans-serif">USAGE GLANCE</text><text x="14" y="44" fill="#e6edf3" font-size="13" font-weight="500" text-anchor="start" font-family="'Trebuchet MS', sans-serif">Claude</text><g transform="translate(0,50)"><text x="14" y="9" fill="#9aa4ad" font-size="10" font-weight="400" text-anchor="start" font-family="'Trebuchet MS', sans-serif">5h</text><rect x="48" y="3" width="112" height="7" rx="3.5" fill="rgba(255,255,255,0.10)"/><rect x="48" y="3" width="38.1" height="7" rx="3.5" fill="#d29922"/><text x="196" y="9" fill="#d29922" font-size="11" font-weight="400" text-anchor="end" font-family="'Trebuchet MS', sans-serif">34%</text></g><g transform="translate(0,66)"><text x="14" y="9" fill="#9aa4ad" font-size="10" font-weight="400" text-anchor="start" font-family="'Trebuchet MS', sans-serif">weekly</text><rect x="48" y="3" width="112" height="7" rx="3.5" fill="rgba(255,255,255,0.10)"/><rect x="48" y="3" width="69.4" height="7" rx="3.5" fill="#3fb950"/><text x="196" y="9" fill="#3fb950" font-size="11" font-weight="400" text-anchor="end" font-family="'Trebuchet MS', sans-serif">62%</text></g><text x="14" y="102" fill="#e6edf3" font-size="13" font-weight="500" text-anchor="start" font-family="'Trebuchet MS', sans-serif">Codex</text><g transform="translate(0,108)"><text x="14" y="9" fill="#9aa4ad" font-size="10" font-weight="400" text-anchor="start" font-family="'Trebuchet MS', sans-serif">weekly</text><rect x="48" y="3" width="112" height="7" rx="3.5" fill="rgba(255,255,255,0.10)"/><rect x="48" y="3" width="94.1" height="7" rx="3.5" fill="#3fb950"/><text x="196" y="9" fill="#3fb950" font-size="11" font-weight="400" text-anchor="end" font-family="'Trebuchet MS', sans-serif">84%</text></g><text x="14" y="142" fill="#e6edf3" font-size="13" font-weight="500" text-anchor="start" font-family="'Trebuchet MS', sans-serif">fal.ai</text><text x="196" y="142" fill="#e6edf3" font-size="12" font-weight="400" text-anchor="end" font-family="'Trebuchet MS', sans-serif">$19.98 left</text><text x="14" y="164" fill="#e6edf3" font-size="13" font-weight="500" text-anchor="start" font-family="'Trebuchet MS', sans-serif">Manus</text><text x="196" y="164" fill="#e6edf3" font-size="12" font-weight="400" text-anchor="end" font-family="'Trebuchet MS', sans-serif">4,312 cr left</text></g><text x="474" y="67" fill="#7d8590" font-size="11" font-weight="400" text-anchor="start">ring  ·  rings</text><g transform="translate(472,76)"><rect width="210" height="188" rx="12" fill="#161b22" stroke="rgba(255,255,255,0.08)"/><text x="14" y="22" fill="#9aa4ad" font-size="9.5" font-weight="500" text-anchor="start" font-family="-apple-system, sans-serif">USAGE GLANCE</text><circle cx="40" cy="66" r="20" fill="none" stroke="rgba(127,127,127,0.28)" stroke-width="5"/><circle cx="40" cy="66" r="20" fill="none" stroke="#3fb950" stroke-width="5" stroke-linecap="round" stroke-dasharray="77.9 47.8" transform="rotate(-90 40 66)"/><text x="40" y="70" fill="#e6edf3" font-size="12" font-weight="500" text-anchor="middle">62%</text><text x="40" y="102" fill="#9aa4ad" font-size="11" font-weight="400" text-anchor="middle" font-family="-apple-system, sans-serif">Claude</text><circle cx="105" cy="66" r="20" fill="none" stroke="rgba(127,127,127,0.28)" stroke-width="5"/><circle cx="105" cy="66" r="20" fill="none" stroke="#3fb950" stroke-width="5" stroke-linecap="round" stroke-dasharray="105.6 20.1" transform="rotate(-90 105 66)"/><text x="105" y="70" fill="#e6edf3" font-size="12" font-weight="500" text-anchor="middle">84%</text><text x="105" y="102" fill="#9aa4ad" font-size="11" font-weight="400" text-anchor="middle" font-family="-apple-system, sans-serif">Codex</text><circle cx="170" cy="66" r="20" fill="none" stroke="rgba(127,127,127,0.28)" stroke-width="5"/><circle cx="170" cy="66" r="20" fill="none" stroke="#3fb950" stroke-width="5" stroke-linecap="round" stroke-dasharray="125.7 0.0" transform="rotate(-90 170 66)"/><text x="170" y="70" fill="#e6edf3" font-size="12" font-weight="500" text-anchor="middle">100%</text><text x="170" y="102" fill="#9aa4ad" font-size="11" font-weight="400" text-anchor="middle" font-family="-apple-system, sans-serif">Cursor</text><text x="14" y="132" fill="#9aa4ad" font-size="12" font-weight="400" text-anchor="start" font-family="-apple-system, sans-serif">OpenRouter</text><text x="196" y="132" fill="#e6edf3" font-size="12" font-weight="400" text-anchor="end" font-family="-apple-system, sans-serif">$13.72 left</text><text x="14" y="152" fill="#9aa4ad" font-size="12" font-weight="400" text-anchor="start" font-family="-apple-system, sans-serif">DeepSeek</text><text x="196" y="152" fill="#e6edf3" font-size="12" font-weight="400" text-anchor="end" font-family="-apple-system, sans-serif">$17.31 left</text><text x="14" y="172" fill="#9aa4ad" font-size="12" font-weight="400" text-anchor="start" font-family="-apple-system, sans-serif">Manus</text><text x="196" y="172" fill="#e6edf3" font-size="12" font-weight="400" text-anchor="end" font-family="-apple-system, sans-serif">4,312 cr left</text></g><text x="22" y="293" fill="#7d8590" font-size="11" font-weight="400" text-anchor="start">seg  ·  segments</text><g transform="translate(20,302)"><rect width="210" height="188" rx="12" fill="#161b22" stroke="rgba(255,255,255,0.08)"/><text x="14" y="22" fill="#9aa4ad" font-size="9.5" font-weight="500" text-anchor="start" font-family="-apple-system, sans-serif">USAGE GLANCE</text><text x="14" y="46" fill="#e6edf3" font-size="13" font-weight="500" text-anchor="start" font-family="-apple-system, sans-serif">Claude</text><text x="196" y="46" fill="#3fb950" font-size="12" font-weight="400" text-anchor="end" font-family="-apple-system, sans-serif">62%</text><rect x="14.0" y="53" width="15.5" height="7" rx="3" fill="#3fb950"/><rect x="32.5" y="53" width="15.5" height="7" rx="3" fill="#3fb950"/><rect x="51.0" y="53" width="15.5" height="7" rx="3" fill="#3fb950"/><rect x="69.5" y="53" width="15.5" height="7" rx="3" fill="#3fb950"/><rect x="88.0" y="53" width="15.5" height="7" rx="3" fill="#3fb950"/><rect x="106.5" y="53" width="15.5" height="7" rx="3" fill="#3fb950"/><rect x="125.0" y="53" width="15.5" height="7" rx="3" fill="rgba(255,255,255,0.12)"/><rect x="143.5" y="53" width="15.5" height="7" rx="3" fill="rgba(255,255,255,0.12)"/><rect x="162.0" y="53" width="15.5" height="7" rx="3" fill="rgba(255,255,255,0.12)"/><rect x="180.5" y="53" width="15.5" height="7" rx="3" fill="rgba(255,255,255,0.12)"/><text x="14" y="86" fill="#e6edf3" font-size="13" font-weight="500" text-anchor="start" font-family="-apple-system, sans-serif">Codex</text><text x="196" y="86" fill="#3fb950" font-size="12" font-weight="400" text-anchor="end" font-family="-apple-system, sans-serif">84%</text><rect x="14.0" y="93" width="15.5" height="7" rx="3" fill="#3fb950"/><rect x="32.5" y="93" width="15.5" height="7" rx="3" fill="#3fb950"/><rect x="51.0" y="93" width="15.5" height="7" rx="3" fill="#3fb950"/><rect x="69.5" y="93" width="15.5" height="7" rx="3" fill="#3fb950"/><rect x="88.0" y="93" width="15.5" height="7" rx="3" fill="#3fb950"/><rect x="106.5" y="93" width="15.5" height="7" rx="3" fill="#3fb950"/><rect x="125.0" y="93" width="15.5" height="7" rx="3" fill="#3fb950"/><rect x="143.5" y="93" width="15.5" height="7" rx="3" fill="#3fb950"/><rect x="162.0" y="93" width="15.5" height="7" rx="3" fill="rgba(255,255,255,0.12)"/><rect x="180.5" y="93" width="15.5" height="7" rx="3" fill="rgba(255,255,255,0.12)"/><text x="14" y="126" fill="#e6edf3" font-size="13" font-weight="500" text-anchor="start" font-family="-apple-system, sans-serif">Cursor</text><text x="196" y="126" fill="#3fb950" font-size="12" font-weight="400" text-anchor="end" font-family="-apple-system, sans-serif">100%</text><rect x="14.0" y="133" width="15.5" height="7" rx="3" fill="#3fb950"/><rect x="32.5" y="133" width="15.5" height="7" rx="3" fill="#3fb950"/><rect x="51.0" y="133" width="15.5" height="7" rx="3" fill="#3fb950"/><rect x="69.5" y="133" width="15.5" height="7" rx="3" fill="#3fb950"/><rect x="88.0" y="133" width="15.5" height="7" rx="3" fill="#3fb950"/><rect x="106.5" y="133" width="15.5" height="7" rx="3" fill="#3fb950"/><rect x="125.0" y="133" width="15.5" height="7" rx="3" fill="#3fb950"/><rect x="143.5" y="133" width="15.5" height="7" rx="3" fill="#3fb950"/><rect x="162.0" y="133" width="15.5" height="7" rx="3" fill="#3fb950"/><rect x="180.5" y="133" width="15.5" height="7" rx="3" fill="#3fb950"/></g><text x="248" y="293" fill="#7d8590" font-size="11" font-weight="400" text-anchor="start">batt  ·  battery</text><g transform="translate(246,302)"><rect width="210" height="188" rx="12" fill="#161b22" stroke="rgba(255,255,255,0.08)"/><text x="14" y="22" fill="#9aa4ad" font-size="9.5" font-weight="500" text-anchor="start" font-family="'Trebuchet MS', sans-serif">USAGE GLANCE</text><text x="14" y="57" fill="#e6edf3" font-size="13" font-weight="500" text-anchor="start" font-family="'Trebuchet MS', sans-serif">Claude</text><rect x="110" y="44" width="44" height="17" rx="3" fill="none" stroke="#3fb950" stroke-width="2"/><rect x="113" y="47" width="23.6" height="11" rx="1.5" fill="#3fb950"/><rect x="155" y="49" width="3" height="7" rx="1" fill="#3fb950"/><text x="196" y="57" fill="#e6edf3" font-size="12" font-weight="400" text-anchor="end" font-family="'Trebuchet MS', sans-serif">62%</text><text x="14" y="87" fill="#e6edf3" font-size="13" font-weight="500" text-anchor="start" font-family="'Trebuchet MS', sans-serif">Codex</text><rect x="110" y="74" width="44" height="17" rx="3" fill="none" stroke="#3fb950" stroke-width="2"/><rect x="113" y="77" width="31.9" height="11" rx="1.5" fill="#3fb950"/><rect x="155" y="79" width="3" height="7" rx="1" fill="#3fb950"/><text x="196" y="87" fill="#e6edf3" font-size="12" font-weight="400" text-anchor="end" font-family="'Trebuchet MS', sans-serif">84%</text><text x="14" y="117" fill="#e6edf3" font-size="13" font-weight="500" text-anchor="start" font-family="'Trebuchet MS', sans-serif">Cursor</text><rect x="110" y="104" width="44" height="17" rx="3" fill="none" stroke="#3fb950" stroke-width="2"/><rect x="113" y="107" width="38.0" height="11" rx="1.5" fill="#3fb950"/><rect x="155" y="109" width="3" height="7" rx="1" fill="#3fb950"/><text x="196" y="117" fill="#e6edf3" font-size="12" font-weight="400" text-anchor="end" font-family="'Trebuchet MS', sans-serif">100%</text><text x="14" y="150" fill="#9aa4ad" font-size="12" font-weight="400" text-anchor="start" font-family="'Trebuchet MS', sans-serif">fal.ai</text><text x="196" y="150" fill="#e6edf3" font-size="12" font-weight="400" text-anchor="end" font-family="'Trebuchet MS', sans-serif">$19.98</text><text x="14" y="170" fill="#9aa4ad" font-size="12" font-weight="400" text-anchor="start" font-family="'Trebuchet MS', sans-serif">Manus</text><text x="196" y="170" fill="#e6edf3" font-size="12" font-weight="400" text-anchor="end" font-family="'Trebuchet MS', sans-serif">4,312 cr</text></g><text x="474" y="293" fill="#7d8590" font-size="11" font-weight="400" text-anchor="start">tile  ·  tiles</text><g transform="translate(472,302)"><rect width="210" height="188" rx="12" fill="#12141a" stroke="rgba(255,255,255,0.08)"/><text x="14" y="22" fill="#9aa4ad" font-size="9.5" font-weight="500" text-anchor="start" font-family="'Trebuchet MS', sans-serif">USAGE GLANCE</text><rect x="14" y="36" width="87" height="58" rx="13" fill="#ece7fb"/><text x="25" y="55" fill="#5b4a9e" font-size="11" font-weight="400" text-anchor="start" font-family="'Trebuchet MS', sans-serif">Claude</text><text x="25" y="78" fill="#5b4a9e" font-size="22" font-weight="600" text-anchor="start" font-family="'Trebuchet MS', sans-serif">62%</text><rect x="25" y="84" width="65" height="7" rx="3.5" fill="#d5ccef"/><rect x="25" y="84" width="40.3" height="7" rx="3.5" fill="#8b7fd6"/><rect x="109" y="36" width="87" height="58" rx="13" fill="#ddf3e8"/><text x="120" y="55" fill="#2f7a56" font-size="11" font-weight="400" text-anchor="start" font-family="'Trebuchet MS', sans-serif">Codex</text><text x="120" y="78" fill="#2f7a56" font-size="22" font-weight="600" text-anchor="start" font-family="'Trebuchet MS', sans-serif">84%</text><rect x="120" y="84" width="65" height="7" rx="3.5" fill="#c2e6d4"/><rect x="120" y="84" width="54.6" height="7" rx="3.5" fill="#5dcaa5"/><rect x="14" y="102" width="87" height="58" rx="13" fill="#fbeae1"/><text x="25" y="121" fill="#a35a2e" font-size="11" font-weight="400" text-anchor="start" font-family="'Trebuchet MS', sans-serif">Cursor</text><text x="25" y="144" fill="#a35a2e" font-size="22" font-weight="600" text-anchor="start" font-family="'Trebuchet MS', sans-serif">100%</text><rect x="25" y="150" width="65" height="7" rx="3.5" fill="#f1d3c4"/><rect x="25" y="150" width="65.0" height="7" rx="3.5" fill="#e08a5a"/><rect x="109" y="102" width="87" height="58" rx="13" fill="#e3eefb"/><text x="120" y="121" fill="#2f5a9e" font-size="11" font-weight="400" text-anchor="start" font-family="'Trebuchet MS', sans-serif">Manus</text><text x="120" y="144" fill="#2f5a9e" font-size="17" font-weight="600" text-anchor="start" font-family="'Trebuchet MS', sans-serif">4,312cr</text></g><text x="22" y="519" fill="#7d8590" font-size="11" font-weight="400" text-anchor="start">mono  ·  mono</text><g transform="translate(20,528)"><rect width="210" height="188" rx="12" fill="#161b22" stroke="rgba(255,255,255,0.08)"/><text x="14" y="22" fill="#9aa4ad" font-size="9.5" font-weight="500" text-anchor="start" font-family="ui-monospace, Menlo, monospace">USAGE GLANCE</text><text x="14" y="44" fill="#e6edf3" font-size="13" font-weight="400" text-anchor="start" font-family="ui-monospace, Menlo, monospace">claude 5h</text><text x="84" y="44" fill="#d29922" font-size="13" font-weight="400" text-anchor="start" font-family="ui-monospace, Menlo, monospace">▓▓▓░░░░░░░</text><text x="196" y="44" fill="#d29922" font-size="13" font-weight="400" text-anchor="end" font-family="ui-monospace, Menlo, monospace">34%</text><text x="14" y="66" fill="#e6edf3" font-size="13" font-weight="400" text-anchor="start" font-family="ui-monospace, Menlo, monospace">claude wk</text><text x="84" y="66" fill="#3fb950" font-size="13" font-weight="400" text-anchor="start" font-family="ui-monospace, Menlo, monospace">▓▓▓▓▓▓░░░░</text><text x="196" y="66" fill="#3fb950" font-size="13" font-weight="400" text-anchor="end" font-family="ui-monospace, Menlo, monospace">62%</text><text x="14" y="88" fill="#e6edf3" font-size="13" font-weight="400" text-anchor="start" font-family="ui-monospace, Menlo, monospace">codex  wk</text><text x="84" y="88" fill="#3fb950" font-size="13" font-weight="400" text-anchor="start" font-family="ui-monospace, Menlo, monospace">▓▓▓▓▓▓▓▓░░</text><text x="196" y="88" fill="#3fb950" font-size="13" font-weight="400" text-anchor="end" font-family="ui-monospace, Menlo, monospace">84%</text><text x="14" y="110" fill="#e6edf3" font-size="13" font-weight="400" text-anchor="start" font-family="ui-monospace, Menlo, monospace">cursor mo</text><text x="84" y="110" fill="#3fb950" font-size="13" font-weight="400" text-anchor="start" font-family="ui-monospace, Menlo, monospace">▓▓▓▓▓▓▓▓▓▓</text><text x="196" y="110" fill="#3fb950" font-size="13" font-weight="400" text-anchor="end" font-family="ui-monospace, Menlo, monospace">100%</text><text x="14" y="150" fill="#9aa4ad" font-size="12" font-weight="400" text-anchor="start" font-family="ui-monospace, Menlo, monospace">fal $19.98  manus 4,312cr</text></g><text x="248" y="519" fill="#7d8590" font-size="11" font-weight="400" text-anchor="start">lcd  ·  lcd</text><g transform="translate(246,528)"><rect width="210" height="188" rx="12" fill="#0c1410" stroke="rgba(255,255,255,0.08)"/><text x="14" y="22" fill="#2f7d4a" font-size="9.5" font-weight="500" text-anchor="start" font-family="ui-monospace, Menlo, monospace">USAGE GLANCE</text><text x="14" y="44" fill="#4ad26a" font-size="13" font-weight="400" text-anchor="start" font-family="ui-monospace, Menlo, monospace">claude 5h</text><text x="84" y="44" fill="#e0a82e" font-size="13" font-weight="400" text-anchor="start" font-family="ui-monospace, Menlo, monospace">[###.......]</text><text x="196" y="44" fill="#e0a82e" font-size="13" font-weight="400" text-anchor="end" font-family="ui-monospace, Menlo, monospace">34%</text><text x="14" y="66" fill="#4ad26a" font-size="13" font-weight="400" text-anchor="start" font-family="ui-monospace, Menlo, monospace">claude wk</text><text x="84" y="66" fill="#4ad26a" font-size="13" font-weight="400" text-anchor="start" font-family="ui-monospace, Menlo, monospace">[######....]</text><text x="196" y="66" fill="#4ad26a" font-size="13" font-weight="400" text-anchor="end" font-family="ui-monospace, Menlo, monospace">62%</text><text x="14" y="88" fill="#4ad26a" font-size="13" font-weight="400" text-anchor="start" font-family="ui-monospace, Menlo, monospace">codex  wk</text><text x="84" y="88" fill="#4ad26a" font-size="13" font-weight="400" text-anchor="start" font-family="ui-monospace, Menlo, monospace">[########..]</text><text x="196" y="88" fill="#4ad26a" font-size="13" font-weight="400" text-anchor="end" font-family="ui-monospace, Menlo, monospace">84%</text><text x="14" y="110" fill="#4ad26a" font-size="13" font-weight="400" text-anchor="start" font-family="ui-monospace, Menlo, monospace">cursor mo</text><text x="84" y="110" fill="#4ad26a" font-size="13" font-weight="400" text-anchor="start" font-family="ui-monospace, Menlo, monospace">[##########]</text><text x="196" y="110" fill="#4ad26a" font-size="13" font-weight="400" text-anchor="end" font-family="ui-monospace, Menlo, monospace">100%</text><text x="14" y="150" fill="#2f7d4a" font-size="12" font-weight="400" text-anchor="start" font-family="ui-monospace, Menlo, monospace">fal $19.98  manus 4,312cr</text></g><text x="474" y="519" fill="#7d8590" font-size="11" font-weight="400" text-anchor="start">soft  ·  pastel</text><g transform="translate(472,528)"><rect width="210" height="188" rx="12" fill="#faf9ff" stroke="rgba(255,255,255,0.08)"/><text x="14" y="22" fill="#9b96b5" font-size="9.5" font-weight="500" text-anchor="start" font-family="'Trebuchet MS', sans-serif">USAGE GLANCE</text><text x="14" y="44" fill="#4a4660" font-size="13" font-weight="500" text-anchor="start" font-family="'Trebuchet MS', sans-serif">Claude</text><g transform="translate(0,50)"><text x="14" y="9" fill="#9b96b5" font-size="10" font-weight="400" text-anchor="start" font-family="'Trebuchet MS', sans-serif">5h</text><rect x="48" y="3" width="112" height="7" rx="3.5" fill="#eceaf4"/><rect x="48" y="3" width="38.1" height="7" rx="3.5" fill="#e6c06a"/><text x="196" y="9" fill="#e6c06a" font-size="11" font-weight="400" text-anchor="end" font-family="'Trebuchet MS', sans-serif">34%</text></g><g transform="translate(0,66)"><text x="14" y="9" fill="#9b96b5" font-size="10" font-weight="400" text-anchor="start" font-family="'Trebuchet MS', sans-serif">weekly</text><rect x="48" y="3" width="112" height="7" rx="3.5" fill="#eceaf4"/><rect x="48" y="3" width="69.4" height="7" rx="3.5" fill="#7ec99a"/><text x="196" y="9" fill="#7ec99a" font-size="11" font-weight="400" text-anchor="end" font-family="'Trebuchet MS', sans-serif">62%</text></g><text x="14" y="102" fill="#4a4660" font-size="13" font-weight="500" text-anchor="start" font-family="'Trebuchet MS', sans-serif">Codex</text><g transform="translate(0,108)"><text x="14" y="9" fill="#9b96b5" font-size="10" font-weight="400" text-anchor="start" font-family="'Trebuchet MS', sans-serif">weekly</text><rect x="48" y="3" width="112" height="7" rx="3.5" fill="#eceaf4"/><rect x="48" y="3" width="94.1" height="7" rx="3.5" fill="#7ec99a"/><text x="196" y="9" fill="#7ec99a" font-size="11" font-weight="400" text-anchor="end" font-family="'Trebuchet MS', sans-serif">84%</text></g><text x="14" y="142" fill="#4a4660" font-size="13" font-weight="500" text-anchor="start" font-family="'Trebuchet MS', sans-serif">fal.ai</text><text x="196" y="142" fill="#4a4660" font-size="12" font-weight="400" text-anchor="end" font-family="'Trebuchet MS', sans-serif">$19.98 left</text><text x="14" y="164" fill="#4a4660" font-size="13" font-weight="500" text-anchor="start" font-family="'Trebuchet MS', sans-serif">Manus</text><text x="196" y="164" fill="#4a4660" font-size="12" font-weight="400" text-anchor="end" font-family="'Trebuchet MS', sans-serif">4,312 cr left</text></g></svg>